<svg id="svg" version="1.1" xmlns="http://www.w3.org/2000/svg" xmlns:xlink="http://www.w3.org/1999/xlink" width="400" height="400" viewBox="0, 0, 400,400"><g id="svgg"><path id="path0" d="M191.000 66.185 C 190.780 66.259,188.440 66.532,185.800 66.792 C 177.521 67.606,164.882 70.051,160.800 71.627 C 156.368 73.339,152.184 74.773,151.585 74.786 C 151.246 74.794,150.263 75.160,149.400 75.600 C 148.537 76.040,147.549 76.400,147.204 76.400 C 146.860 76.400,146.153 76.697,145.635 77.061 C 145.116 77.424,141.980 79.058,138.666 80.692 C 135.353 82.325,132.151 84.075,131.551 84.579 C 130.952 85.084,129.232 86.183,127.730 87.021 C 125.215 88.426,122.858 90.062,119.800 92.528 C 119.140 93.060,117.880 93.979,117.000 94.571 C 116.120 95.163,114.410 96.540,113.200 97.631 C 111.990 98.722,110.190 100.293,109.200 101.120 C 107.467 102.568,102.000 108.299,97.772 113.098 C 94.135 117.226,87.929 125.657,86.951 127.800 C 86.549 128.680,85.449 130.505,84.506 131.856 C 79.471 139.073,76.451 147.781,77.966 150.716 C 81.576 157.708,89.790 157.006,93.349 149.400 C 95.349 145.125,96.663 142.703,97.300 142.119 C 97.685 141.765,98.001 141.279,98.002 141.038 C 98.006 140.470,102.661 132.723,103.313 132.200 C 103.588 131.980,104.799 130.452,106.006 128.805 C 107.213 127.158,108.888 125.098,109.729 124.227 C 110.570 123.357,111.712 121.869,112.267 120.922 C 112.822 119.975,113.453 119.200,113.669 119.200 C 113.885 119.200,115.625 117.625,117.535 115.700 C 121.658 111.546,126.939 107.113,129.414 105.730 C 130.392 105.183,131.562 104.266,132.013 103.692 C 132.834 102.649,137.133 99.912,140.256 98.444 C 141.167 98.016,142.030 97.476,142.174 97.243 C 142.534 96.660,147.346 94.000,148.038 94.001 C 148.347 94.002,149.320 93.656,150.200 93.233 C 158.696 89.147,159.221 88.945,166.400 87.007 C 167.830 86.620,169.810 86.067,170.800 85.776 C 186.558 81.147,210.162 80.625,224.800 84.582 C 226.890 85.146,230.310 85.987,232.400 86.448 C 234.490 86.910,237.247 87.718,238.526 88.244 C 239.806 88.770,241.086 89.200,241.370 89.200 C 241.655 89.200,242.948 89.766,244.244 90.459 C 245.540 91.151,248.400 92.462,250.600 93.372 C 252.800 94.282,256.580 96.206,259.000 97.648 C 261.420 99.089,264.291 100.776,265.379 101.397 C 266.467 102.018,267.775 103.022,268.285 103.629 C 268.796 104.235,270.200 105.288,271.406 105.969 C 276.008 108.566,291.544 123.947,294.124 128.460 C 294.708 129.483,296.088 131.373,297.190 132.660 C 298.292 133.947,299.492 135.630,299.856 136.400 C 300.220 137.170,301.031 138.552,301.659 139.472 C 302.286 140.392,302.800 141.259,302.800 141.400 C 302.800 141.541,303.308 142.408,303.928 143.328 C 304.548 144.248,305.300 145.630,305.599 146.400 C 306.419 148.514,307.917 151.877,309.429 155.000 C 310.645 157.511,312.069 161.213,312.661 163.400 C 316.657 178.181,316.759 178.652,317.647 186.442 C 318.339 192.512,317.620 193.328,314.000 190.580 C 306.986 185.256,300.408 186.733,298.961 193.957 C 298.166 197.930,301.248 201.679,309.200 206.413 C 310.850 207.395,313.311 209.009,314.669 210.000 C 326.921 218.932,330.851 218.918,338.246 209.916 C 339.021 208.972,340.261 207.750,341.000 207.200 C 341.740 206.650,343.068 205.271,343.953 204.136 C 344.838 203.000,346.391 201.380,347.403 200.536 C 355.060 194.149,356.285 188.682,351.042 184.300 C 347.289 181.162,344.643 181.669,338.978 186.608 C 334.193 190.780,334.057 190.719,333.228 184.000 C 332.561 178.595,331.719 173.729,330.496 168.200 C 329.456 163.499,328.823 161.492,325.828 153.400 C 325.014 151.200,324.095 148.590,323.786 147.600 C 323.476 146.610,322.623 144.870,321.888 143.733 C 321.154 142.595,320.029 140.345,319.389 138.733 C 318.267 135.908,316.038 131.990,314.907 130.853 C 314.607 130.551,313.756 129.111,313.016 127.653 C 312.276 126.194,310.380 123.387,308.804 121.416 C 307.228 119.445,305.749 117.465,305.517 117.016 C 304.624 115.286,292.737 102.607,290.201 100.680 C 289.100 99.843,287.462 98.403,286.559 97.480 C 285.657 96.556,283.514 94.810,281.797 93.600 C 280.080 92.390,277.874 90.717,276.894 89.883 C 275.913 89.048,273.899 87.755,272.417 87.009 C 270.935 86.262,269.200 85.228,268.562 84.709 C 266.786 83.267,265.747 82.688,261.232 80.627 C 258.940 79.580,256.592 78.374,256.013 77.947 C 255.435 77.519,252.181 76.210,248.781 75.037 C 245.382 73.865,241.160 72.342,239.400 71.653 C 230.492 68.165,196.499 64.325,191.000 66.185 M178.849 126.846 C 176.955 127.066,175.254 127.549,174.099 128.194 C 173.109 128.747,172.094 129.200,171.843 129.200 C 169.990 129.200,162.800 135.089,162.800 136.606 C 162.800 136.879,162.542 137.317,162.226 137.579 C 161.910 137.841,161.526 138.625,161.373 139.322 C 161.220 140.018,160.828 140.997,160.500 141.496 C 159.208 143.468,161.498 148.815,165.746 153.744 C 169.770 158.414,169.626 159.978,164.969 162.188 C 162.356 163.428,152.455 173.875,150.053 177.928 C 149.312 179.177,148.162 180.887,147.498 181.726 C 146.308 183.232,142.803 189.839,142.801 190.582 C 142.800 190.792,142.182 192.322,141.426 193.982 C 135.461 207.087,135.580 237.512,141.648 250.626 C 142.061 251.521,142.401 252.421,142.402 252.626 C 142.408 253.716,146.296 260.824,147.919 262.713 C 153.788 269.543,159.762 274.161,165.168 276.047 C 166.360 276.463,168.122 277.265,169.083 277.828 C 177.495 282.757,208.499 284.644,228.400 281.438 C 234.097 280.520,238.525 279.320,241.727 277.826 C 243.307 277.089,245.700 276.024,247.045 275.461 C 253.247 272.862,261.089 265.766,263.884 260.225 C 264.446 259.111,265.400 257.480,266.005 256.600 C 267.696 254.140,269.799 246.914,270.836 240.000 C 271.017 238.790,271.357 236.720,271.592 235.400 C 274.363 219.802,271.348 198.742,264.801 187.963 C 263.701 186.151,262.800 184.437,262.800 184.155 C 262.800 182.006,250.768 168.135,244.600 163.174 C 239.828 159.335,239.855 159.528,243.566 156.017 C 260.294 140.189,248.358 122.132,224.891 127.763 C 223.631 128.066,219.946 129.053,216.701 129.956 C 208.648 132.200,207.604 132.168,199.456 129.425 C 191.085 126.607,186.192 125.994,178.849 126.846 M69.529 182.759 C 67.760 183.881,56.922 194.506,54.947 197.054 C 54.412 197.744,53.254 198.808,52.373 199.418 C 45.754 204.006,45.219 212.547,51.357 215.680 C 54.661 217.366,57.453 216.565,61.970 212.636 C 65.992 209.137,66.017 209.158,66.997 216.800 C 67.350 219.550,67.985 223.690,68.407 226.000 C 68.829 228.310,69.385 231.370,69.641 232.800 C 70.093 235.329,70.520 236.635,72.381 241.200 C 72.875 242.410,73.959 245.470,74.791 248.000 C 75.622 250.530,77.271 254.490,78.454 256.800 C 79.638 259.110,81.173 262.260,81.867 263.800 C 82.561 265.340,83.703 267.320,84.405 268.200 C 85.108 269.080,86.300 270.970,87.054 272.400 C 87.808 273.830,88.968 275.720,89.631 276.600 C 90.295 277.480,91.144 278.659,91.519 279.221 C 92.561 280.783,94.765 283.468,97.217 286.163 C 98.437 287.503,99.915 289.254,100.503 290.054 C 101.762 291.768,109.663 299.588,110.691 300.136 C 111.081 300.345,112.592 301.614,114.049 302.958 C 115.505 304.301,117.740 306.120,119.014 307.000 C 120.287 307.880,122.151 309.274,123.155 310.098 C 124.158 310.921,126.230 312.252,127.758 313.055 C 129.285 313.858,131.397 315.164,132.451 315.957 C 133.504 316.751,135.769 318.010,137.483 318.757 C 139.197 319.503,141.775 320.804,143.212 321.649 C 144.648 322.494,146.628 323.444,147.612 323.761 C 149.447 324.352,154.838 326.300,159.800 328.167 C 162.737 329.271,169.336 330.957,172.400 331.385 C 173.390 331.524,175.010 331.811,176.000 332.023 C 184.315 333.803,202.099 334.905,208.800 334.055 C 210.670 333.818,213.730 333.445,215.600 333.226 C 225.828 332.027,236.762 329.729,241.041 327.878 C 242.338 327.316,245.020 326.324,247.000 325.673 C 252.630 323.822,256.026 322.499,256.742 321.876 C 257.104 321.562,258.660 320.723,260.200 320.012 C 261.740 319.301,263.785 318.352,264.744 317.902 C 265.703 317.453,267.323 316.448,268.344 315.669 C 269.365 314.890,271.190 313.732,272.400 313.097 C 274.805 311.833,278.487 309.305,280.755 307.361 C 281.550 306.679,282.933 305.597,283.829 304.956 C 284.724 304.315,286.056 303.108,286.788 302.275 C 287.520 301.441,288.653 300.483,289.306 300.145 C 290.534 299.510,300.000 290.192,300.000 289.618 C 300.000 289.440,301.060 288.221,302.356 286.909 C 303.652 285.597,305.174 283.791,305.740 282.895 C 306.305 282.000,306.962 281.147,307.200 281.000 C 307.438 280.853,308.069 280.073,308.603 279.266 C 309.136 278.460,310.115 277.080,310.777 276.200 C 311.440 275.320,312.430 273.645,312.979 272.478 C 313.527 271.311,314.596 269.631,315.355 268.744 C 316.113 267.858,317.677 265.033,318.829 262.467 C 319.981 259.900,321.244 257.339,321.635 256.776 C 323.491 254.104,323.106 250.950,320.546 247.840 C 315.879 242.171,310.281 244.257,305.837 253.323 C 304.630 255.785,302.733 259.233,301.621 260.984 C 300.509 262.735,299.600 264.368,299.600 264.613 C 299.600 264.859,298.606 266.208,297.390 267.611 C 296.175 269.015,294.705 270.981,294.123 271.981 C 291.556 276.394,275.828 292.049,271.390 294.608 C 270.295 295.240,268.525 296.531,267.456 297.479 C 266.387 298.426,264.767 299.560,263.856 299.997 C 262.945 300.434,260.850 301.625,259.200 302.643 C 257.550 303.661,254.220 305.377,251.800 306.457 C 249.380 307.537,246.320 308.960,245.000 309.619 C 239.504 312.365,223.632 316.658,215.400 317.626 C 200.581 319.368,183.741 318.213,170.400 314.540 C 160.420 311.792,158.505 311.106,151.087 307.628 C 149.595 306.928,147.628 306.092,146.715 305.770 C 145.802 305.448,144.503 304.771,143.827 304.265 C 143.152 303.760,140.551 302.190,138.046 300.776 C 135.542 299.363,132.732 297.456,131.803 296.540 C 130.873 295.623,129.322 294.475,128.356 293.988 C 127.390 293.501,125.430 292.020,124.000 290.697 C 118.267 285.393,112.565 279.758,111.964 278.802 C 111.614 278.246,110.522 276.983,109.537 275.996 C 108.552 275.008,107.065 273.120,106.232 271.800 C 105.399 270.480,104.133 268.770,103.418 268.000 C 102.703 267.230,101.058 264.800,99.762 262.600 C 98.467 260.400,96.837 257.752,96.141 256.715 C 95.444 255.678,94.562 253.878,94.181 252.715 C 93.799 251.552,92.682 248.904,91.699 246.830 C 87.633 238.256,83.977 224.770,82.607 213.297 C 81.920 207.536,82.173 206.156,83.841 206.575 C 84.857 206.829,85.323 207.113,89.700 210.130 C 93.520 212.763,98.227 212.269,100.456 209.000 C 104.187 203.527,102.429 198.974,94.701 194.098 C 92.182 192.509,88.878 190.289,87.360 189.165 C 85.842 188.042,83.880 186.756,83.000 186.308 C 82.120 185.859,80.830 184.995,80.133 184.387 C 76.979 181.637,72.406 180.935,69.529 182.759 M231.064 190.200 C 231.740 191.103,231.647 195.313,230.935 196.025 C 230.708 196.252,228.559 196.481,226.161 196.532 C 219.602 196.673,219.141 197.666,223.385 202.500 C 223.960 203.154,226.492 203.455,229.461 203.221 C 231.222 203.082,232.248 206.643,231.224 209.338 C 230.881 210.239,230.570 210.350,227.724 210.582 C 223.740 210.906,223.569 211.015,222.591 213.841 C 220.835 218.916,216.441 223.480,211.785 225.067 C 209.447 225.863,209.464 225.918,213.220 229.773 C 216.216 232.848,220.400 238.166,220.400 238.898 C 220.400 239.074,221.088 239.979,221.929 240.909 C 222.771 241.839,224.421 244.185,225.597 246.122 C 226.773 248.059,228.076 249.826,228.492 250.049 C 232.081 251.970,223.191 253.816,217.389 252.355 C 215.313 251.833,213.602 249.968,211.650 246.100 C 210.956 244.725,210.021 243.375,209.572 243.100 C 209.123 242.825,208.190 241.610,207.497 240.400 C 201.228 229.445,198.477 227.557,188.405 227.293 C 178.893 227.043,178.701 226.916,179.472 221.379 L 179.803 219.000 192.002 218.554 C 205.672 218.054,205.689 218.051,208.700 215.091 C 212.953 210.911,212.428 210.738,194.826 210.504 C 178.762 210.291,179.600 210.484,179.600 207.000 C 179.600 203.430,178.814 203.622,194.039 203.472 C 210.368 203.310,212.621 202.704,208.359 199.617 C 204.866 197.086,202.567 196.672,191.000 196.492 C 179.150 196.307,179.600 196.445,179.600 193.000 C 179.600 189.027,176.809 189.400,206.532 189.400 C 229.998 189.400,230.476 189.416,231.064 190.200 " stroke="none" fill="#eaf5f7" fill-rule="evenodd"></path><path id="path1" d="M0.000 200.000 L 0.000 400.000 200.000 400.000 L 400.000 400.000 400.000 200.000 L 400.000 0.000 200.000 0.000 L 0.000 0.000 0.000 200.000 M216.600 66.942 C 225.231 68.068,235.846 70.261,239.400 71.653 C 241.160 72.342,245.382 73.865,248.781 75.037 C 252.181 76.210,255.435 77.519,256.013 77.947 C 256.592 78.374,258.940 79.580,261.232 80.627 C 265.747 82.688,266.786 83.267,268.562 84.709 C 269.200 85.228,270.935 86.262,272.417 87.009 C 273.899 87.755,275.913 89.048,276.894 89.883 C 277.874 90.717,280.080 92.390,281.797 93.600 C 283.514 94.810,285.657 96.556,286.559 97.480 C 287.462 98.403,289.100 99.843,290.201 100.680 C 292.737 102.607,304.624 115.286,305.517 117.016 C 305.749 117.465,307.228 119.445,308.804 121.416 C 310.380 123.387,312.276 126.194,313.016 127.653 C 313.756 129.111,314.607 130.551,314.907 130.853 C 316.038 131.990,318.267 135.908,319.389 138.733 C 320.029 140.345,321.154 142.595,321.888 143.733 C 322.623 144.870,323.476 146.610,323.786 147.600 C 324.095 148.590,325.014 151.200,325.828 153.400 C 328.823 161.492,329.456 163.499,330.496 168.200 C 331.719 173.729,332.561 178.595,333.228 184.000 C 334.057 190.719,334.193 190.780,338.978 186.608 C 344.643 181.669,347.289 181.162,351.042 184.300 C 356.285 188.682,355.060 194.149,347.403 200.536 C 346.391 201.380,344.838 203.000,343.953 204.136 C 343.068 205.271,341.740 206.650,341.000 207.200 C 340.261 207.750,339.021 208.972,338.246 209.916 C 334.994 213.875,330.443 216.974,327.953 216.924 C 325.195 216.869,321.322 214.850,314.669 210.000 C 313.311 209.009,310.850 207.395,309.200 206.413 C 301.248 201.679,298.166 197.930,298.961 193.957 C 300.408 186.733,306.986 185.256,314.000 190.580 C 317.620 193.328,318.339 192.512,317.647 186.442 C 316.759 178.652,316.657 178.181,312.661 163.400 C 312.069 161.213,310.645 157.511,309.429 155.000 C 307.917 151.877,306.419 148.514,305.599 146.400 C 305.300 145.630,304.548 144.248,303.928 143.328 C 303.308 142.408,302.800 141.541,302.800 141.400 C 302.800 141.259,302.286 140.392,301.659 139.472 C 301.031 138.552,300.220 137.170,299.856 136.400 C 299.492 135.630,298.292 133.947,297.190 132.660 C 296.088 131.373,294.708 129.483,294.124 128.460 C 291.544 123.947,276.008 108.566,271.406 105.969 C 270.200 105.288,268.796 104.235,268.285 103.629 C 267.775 103.022,266.467 102.018,265.379 101.397 C 264.291 100.776,261.420 99.089,259.000 97.648 C 256.580 96.206,252.800 94.282,250.600 93.372 C 248.400 92.462,245.540 91.151,244.244 90.459 C 242.948 89.766,241.655 89.200,241.370 89.200 C 241.086 89.200,239.806 88.770,238.526 88.244 C 237.247 87.718,234.490 86.910,232.400 86.448 C 230.310 85.987,226.890 85.146,224.800 84.582 C 210.162 80.625,186.558 81.147,170.800 85.776 C 169.810 86.067,167.830 86.620,166.400 87.007 C 159.221 88.945,158.696 89.147,150.200 93.233 C 149.320 93.656,148.347 94.002,148.038 94.001 C 147.346 94.000,142.534 96.660,142.174 97.243 C 142.030 97.476,141.167 98.016,140.256 98.444 C 137.133 99.912,132.834 102.649,132.013 103.692 C 131.562 104.266,130.392 105.183,129.414 105.730 C 126.939 107.113,121.658 111.546,117.535 115.700 C 115.625 117.625,113.885 119.200,113.669 119.200 C 113.453 119.200,112.822 119.975,112.267 120.922 C 111.712 121.869,110.570 123.357,109.729 124.227 C 108.888 125.098,107.213 127.158,106.006 128.805 C 104.799 130.452,103.588 131.980,103.313 132.200 C 102.661 132.723,98.006 140.470,98.002 141.038 C 98.001 141.279,97.685 141.765,97.300 142.119 C 96.663 142.703,95.349 145.125,93.349 149.400 C 89.790 157.006,81.576 157.708,77.966 150.716 C 76.451 147.781,79.471 139.073,84.506 131.856 C 85.449 130.505,86.549 128.680,86.951 127.800 C 87.929 125.657,94.135 117.226,97.772 113.098 C 102.000 108.299,107.467 102.568,109.200 101.120 C 110.190 100.293,111.990 98.722,113.200 97.631 C 114.410 96.540,116.120 95.163,117.000 94.571 C 117.880 93.979,119.140 93.060,119.800 92.528 C 122.858 90.062,125.215 88.426,127.730 87.021 C 129.232 86.183,130.952 85.084,131.551 84.579 C 132.151 84.075,135.353 82.325,138.666 80.692 C 141.980 79.058,145.116 77.424,145.635 77.061 C 146.153 76.697,146.860 76.400,147.204 76.400 C 147.549 76.400,148.537 76.040,149.400 75.600 C 150.263 75.160,151.246 74.794,151.585 74.786 C 152.184 74.773,156.368 73.339,160.800 71.627 C 164.882 70.051,177.521 67.606,185.800 66.792 C 188.440 66.532,190.780 66.259,191.000 66.185 C 192.366 65.723,211.621 66.293,216.600 66.942 M188.855 126.825 C 192.048 127.152,194.475 127.748,199.456 129.425 C 207.604 132.168,208.648 132.200,216.701 129.956 C 225.705 127.448,226.808 127.233,232.091 126.960 C 243.151 126.387,251.600 132.538,251.600 141.162 C 251.600 146.473,249.449 150.450,243.566 156.017 C 239.855 159.528,239.828 159.335,244.600 163.174 C 250.768 168.135,262.800 182.006,262.800 184.155 C 262.800 184.437,263.701 186.151,264.801 187.963 C 271.348 198.742,274.363 219.802,271.592 235.400 C 271.357 236.720,271.017 238.790,270.836 240.000 C 269.799 246.914,267.696 254.140,266.005 256.600 C 265.400 257.480,264.446 259.111,263.884 260.225 C 261.089 265.766,253.247 272.862,247.045 275.461 C 245.700 276.024,243.307 277.089,241.727 277.826 C 229.841 283.372,198.459 284.843,178.952 280.770 C 172.917 279.510,170.955 278.925,169.083 277.828 C 168.122 277.265,166.360 276.463,165.168 276.047 C 159.762 274.161,153.788 269.543,147.919 262.713 C 146.296 260.824,142.408 253.716,142.402 252.626 C 142.401 252.421,142.061 251.521,141.648 250.626 C 135.580 237.512,135.461 207.087,141.426 193.982 C 142.182 192.322,142.800 190.792,142.801 190.582 C 142.803 189.839,146.308 183.232,147.498 181.726 C 148.162 180.887,149.312 179.177,150.053 177.928 C 152.455 173.875,162.356 163.428,164.969 162.188 C 169.626 159.978,169.770 158.414,165.746 153.744 C 161.498 148.815,159.208 143.468,160.500 141.496 C 160.828 140.997,161.220 140.018,161.373 139.322 C 161.526 138.625,161.910 137.841,162.226 137.579 C 162.542 137.317,162.800 136.879,162.800 136.606 C 162.800 135.089,169.990 129.200,171.843 129.200 C 172.094 129.200,173.109 128.747,174.099 128.194 C 176.904 126.626,182.163 126.138,188.855 126.825 M76.618 182.441 C 77.854 182.904,79.436 183.779,80.133 184.387 C 80.830 184.995,82.120 185.859,83.000 186.308 C 83.880 186.756,85.842 188.042,87.360 189.165 C 88.878 190.289,92.182 192.509,94.701 194.098 C 102.429 198.974,104.187 203.527,100.456 209.000 C 98.227 212.269,93.520 212.763,89.700 210.130 C 85.323 207.113,84.857 206.829,83.841 206.575 C 79.737 205.545,85.065 232.840,91.699 246.830 C 92.682 248.904,93.799 251.552,94.181 252.715 C 94.562 253.878,95.444 255.678,96.141 256.715 C 96.837 257.752,98.467 260.400,99.762 262.600 C 101.058 264.800,102.703 267.230,103.418 268.000 C 104.133 268.770,105.399 270.480,106.232 271.800 C 107.065 273.120,108.552 275.008,109.537 275.996 C 110.522 276.983,111.614 278.246,111.964 278.802 C 112.565 279.758,118.267 285.393,124.000 290.697 C 125.430 292.020,127.390 293.501,128.356 293.988 C 129.322 294.475,130.873 295.623,131.803 296.540 C 132.732 297.456,135.542 299.363,138.046 300.776 C 140.551 302.190,143.152 303.760,143.827 304.265 C 144.503 304.771,145.802 305.448,146.715 305.770 C 147.628 306.092,149.595 306.928,151.087 307.628 C 158.505 311.106,160.420 311.792,170.400 314.540 C 183.741 318.213,200.581 319.368,215.400 317.626 C 223.632 316.658,239.504 312.365,245.000 309.619 C 246.320 308.960,249.380 307.537,251.800 306.457 C 254.220 305.377,257.550 303.661,259.200 302.643 C 260.850 301.625,262.945 300.434,263.856 299.997 C 264.767 299.560,266.387 298.426,267.456 297.479 C 268.525 296.531,270.295 295.240,271.390 294.608 C 275.828 292.049,291.556 276.394,294.123 271.981 C 294.705 270.981,296.175 269.015,297.390 267.611 C 298.606 266.208,299.600 264.859,299.600 264.613 C 299.600 264.368,300.509 262.735,301.621 260.984 C 302.733 259.233,304.630 255.785,305.837 253.323 C 310.281 244.257,315.879 242.171,320.546 247.840 C 323.106 250.950,323.491 254.104,321.635 256.776 C 321.244 257.339,319.981 259.900,318.829 262.467 C 317.677 265.033,316.113 267.858,315.355 268.744 C 314.596 269.631,313.527 271.311,312.979 272.478 C 312.430 273.645,311.440 275.320,310.777 276.200 C 310.115 277.080,309.136 278.460,308.603 279.266 C 308.069 280.073,307.438 280.853,307.200 281.000 C 306.962 281.147,306.305 282.000,305.740 282.895 C 305.174 283.791,303.652 285.597,302.356 286.909 C 301.060 288.221,300.000 289.440,300.000 289.618 C 300.000 290.192,290.534 299.510,289.306 300.145 C 288.653 300.483,287.520 301.441,286.788 302.275 C 286.056 303.108,284.724 304.315,283.829 304.956 C 282.933 305.597,281.550 306.679,280.755 307.361 C 278.487 309.305,274.805 311.833,272.400 313.097 C 271.190 313.732,269.365 314.890,268.344 315.669 C 267.323 316.448,265.703 317.453,264.744 317.902 C 263.785 318.352,261.740 319.301,260.200 320.012 C 258.660 320.723,257.104 321.562,256.742 321.876 C 256.026 322.499,252.630 323.822,247.000 325.673 C 245.020 326.324,242.338 327.316,241.041 327.878 C 236.762 329.729,225.828 332.027,215.600 333.226 C 213.730 333.445,210.670 333.818,208.800 334.055 C 202.099 334.905,184.315 333.803,176.000 332.023 C 175.010 331.811,173.390 331.524,172.400 331.385 C 169.336 330.957,162.737 329.271,159.800 328.167 C 154.838 326.300,149.447 324.352,147.612 323.761 C 146.628 323.444,144.648 322.494,143.212 321.649 C 141.775 320.804,139.197 319.503,137.483 318.757 C 135.769 318.010,133.504 316.751,132.451 315.957 C 131.397 315.164,129.285 313.858,127.758 313.055 C 126.230 312.252,124.158 310.921,123.155 310.098 C 122.151 309.274,120.287 307.880,119.014 307.000 C 117.740 306.120,115.505 304.301,114.049 302.958 C 112.592 301.614,111.081 300.345,110.691 300.136 C 109.663 299.588,101.762 291.768,100.503 290.054 C 99.915 289.254,98.437 287.503,97.217 286.163 C 94.765 283.468,92.561 280.783,91.519 279.221 C 91.144 278.659,90.295 277.480,89.631 276.600 C 88.968 275.720,87.808 273.830,87.054 272.400 C 86.300 270.970,85.108 269.080,84.405 268.200 C 83.703 267.320,82.561 265.340,81.867 263.800 C 81.173 262.260,79.638 259.110,78.454 256.800 C 77.271 254.490,75.622 250.530,74.791 248.000 C 73.959 245.470,72.875 242.410,72.381 241.200 C 70.520 236.635,70.093 235.329,69.641 232.800 C 69.385 231.370,68.829 228.310,68.407 226.000 C 67.985 223.690,67.350 219.550,66.997 216.800 C 66.017 209.158,65.992 209.137,61.970 212.636 C 57.453 216.565,54.661 217.366,51.357 215.680 C 45.219 212.547,45.754 204.006,52.373 199.418 C 53.254 198.808,54.412 197.744,54.947 197.054 C 56.922 194.506,67.760 183.881,69.529 182.759 C 71.743 181.355,73.504 181.276,76.618 182.441 M181.600 189.538 C 179.925 189.770,179.600 190.333,179.600 193.000 C 179.600 196.445,179.150 196.307,191.000 196.492 C 202.567 196.672,204.866 197.086,208.359 199.617 C 212.621 202.704,210.368 203.310,194.039 203.472 C 178.814 203.622,179.600 203.430,179.600 207.000 C 179.600 210.484,178.762 210.291,194.826 210.504 C 212.428 210.738,212.953 210.911,208.700 215.091 C 205.689 218.051,205.672 218.054,192.002 218.554 L 179.803 219.000 179.472 221.379 C 178.701 226.916,178.893 227.043,188.405 227.293 C 198.477 227.557,201.228 229.445,207.497 240.400 C 208.190 241.610,209.123 242.825,209.572 243.100 C 210.021 243.375,210.956 244.725,211.650 246.100 C 213.602 249.968,215.313 251.833,217.389 252.355 C 223.191 253.816,232.081 251.970,228.492 250.049 C 228.076 249.826,226.773 248.059,225.597 246.122 C 224.421 244.185,222.771 241.839,221.929 240.909 C 221.088 239.979,220.400 239.074,220.400 238.898 C 220.400 238.166,216.216 232.848,213.220 229.773 C 209.464 225.918,209.447 225.863,211.785 225.067 C 216.441 223.480,220.835 218.916,222.591 213.841 C 223.569 211.015,223.740 210.906,227.724 210.582 C 230.570 210.350,230.881 210.239,231.224 209.338 C 232.248 206.643,231.222 203.082,229.461 203.221 C 226.492 203.455,223.960 203.154,223.385 202.500 C 219.141 197.666,219.602 196.673,226.161 196.532 C 231.203 196.424,231.297 196.367,231.506 193.306 C 231.797 189.042,234.084 189.400,206.532 189.400 C 193.369 189.400,182.150 189.462,181.600 189.538 " stroke="none" fill="#2274f9" fill-rule="evenodd"></path></g></svg>