<?xml version="1.0" encoding="UTF-8"?>
<svg version="1.1" xmlns="http://www.w3.org/2000/svg" width="512" height="512">
<path d="M0 0 C1.46430158 1.05153665 2.92915083 2.10231104 4.39453125 3.15234375 C8.17817895 5.86986018 11.9495823 8.60387907 15.71777344 11.34277344 C19.4729412 14.06956834 23.23686078 16.78422286 27 19.5 C28.50004293 20.58327389 30.00004291 21.66660726 31.5 22.75 C32.2425 23.28625 32.985 23.8225 33.75 24.375 C84 60.66666667 134.25 96.95833333 184.5 133.25 C185.2432251 133.7867334 185.9864502 134.3234668 186.75219727 134.87646484 C188.24502772 135.95470125 189.73770472 137.03315015 191.23022461 138.11181641 C195.08865697 140.89993742 198.95006911 143.68378628 202.81640625 146.4609375 C207.22125865 149.62651795 211.61456906 152.80758013 216 156 C216.95132812 156.68964844 217.90265625 157.37929687 218.8828125 158.08984375 C228.78663315 165.49253003 234.91446199 173.60482128 237 186 C237.96980339 196.05238519 235.03335321 204.98989874 229 213 C224.56377072 217.96173106 219.67602512 221.89839962 214.1875 225.625 C212.67900948 226.66959448 211.17121984 227.71520167 209.6640625 228.76171875 C208.89352539 229.29458496 208.12298828 229.82745117 207.32910156 230.37646484 C203.54029668 233.01750808 199.80136235 235.72642635 196.0625 238.4375 C195.31701904 238.97713379 194.57153809 239.51676758 193.8034668 240.07275391 C192.2907903 241.16782033 190.77833921 242.26319817 189.26611328 243.35888672 C185.513552 246.07648173 181.75656581 248.78794473 178 251.5 C176.49997854 252.58330362 174.99997854 253.66663696 173.5 254.75 C122.5 291.58333333 71.5 328.41666667 20.5 365.25 C19.38540405 366.05522095 19.38540405 366.05522095 18.24829102 366.87670898 C16.75458866 367.95517863 15.26028897 369.03282146 13.76538086 370.10961914 C9.91360481 372.8857383 6.07461335 375.67733401 2.25390625 378.49609375 C-22.89491462 396.98741523 -22.89491462 396.98741523 -41 395 C-50.76502602 392.70613 -58.84082156 388.02927587 -64.58984375 379.6953125 C-68.12681653 373.60556805 -70.24788457 367.87201383 -70.25726891 360.76389027 C-70.2637178 359.52560563 -70.27016669 358.28732099 -70.276811 357.01151258 C-70.27386901 355.64543607 -70.27073359 354.27935997 -70.26742554 352.9132843 C-70.27116332 351.45576387 -70.27576535 349.99824544 -70.28115618 348.54073018 C-70.29338606 344.53934287 -70.29312573 340.53803916 -70.29076743 336.53663743 C-70.29035926 332.21950564 -70.30139856 327.90240066 -70.31088257 323.58528137 C-70.32749404 315.12810979 -70.3329922 306.67096608 -70.33410732 298.21377955 C-70.33505784 291.33805895 -70.33916829 284.46234755 -70.34550858 277.58662987 C-70.36312226 258.08831133 -70.37234738 238.5900148 -70.37084763 219.09168825 C-70.37076772 218.0405742 -70.3706878 216.98946014 -70.37060547 215.90649414 C-70.37052371 214.85409494 -70.37044195 213.80169573 -70.37035771 212.71740564 C-70.36954502 195.66648354 -70.38867797 178.61564982 -70.4168822 161.56475327 C-70.44562037 144.05270173 -70.45942195 126.54069328 -70.45769465 109.02861756 C-70.45703102 99.19870566 -70.46251148 89.36888639 -70.48405075 79.53899574 C-70.50227493 71.16839934 -70.50659981 62.79793754 -70.4930319 54.42732988 C-70.48650818 50.1585945 -70.48636336 45.89011727 -70.5037384 41.62140656 C-70.51950097 37.70850177 -70.51657336 33.79605911 -70.49917014 29.88316538 C-70.49610719 28.47265829 -70.49970597 27.06211643 -70.51089029 25.65165035 C-70.60382202 13.09351138 -68.50306273 3.44896257 -59.640625 -5.765625 C-39.22973331 -23.0363795 -18.66764839 -13.56002497 0 0 Z " fill="#000000" transform="translate(121,66)"/>
<path d="M0 0 C8.22338512 5.89684022 14.31525502 14.56098265 16.75406235 24.49536979 C17.22463249 27.41813411 17.31660039 30.16816112 17.32172108 33.12877083 C17.32617892 34.32674707 17.33063676 35.5247233 17.33522969 36.75900185 C17.33504533 38.07152959 17.33486097 39.38405733 17.33467102 40.73635864 C17.33797177 42.14764185 17.34169778 43.55892412 17.3458125 44.97020519 C17.35581653 48.84841295 17.35954671 52.72660523 17.36220181 56.60482407 C17.36610956 60.78767807 17.37568752 64.97051988 17.38441467 69.15336609 C17.40416496 79.25449708 17.41424311 89.35562906 17.42314246 99.45677453 C17.4275274 104.21518062 17.43289364 108.9735856 17.43813133 113.73199081 C17.45514157 129.55237917 17.46963568 145.37276683 17.47688007 161.19316292 C17.47878992 165.29739508 17.48071026 169.40162724 17.48266602 173.50585938 C17.48314976 174.52592732 17.4836335 175.54599526 17.4841319 176.59697436 C17.492432 193.12093482 17.51776951 209.64482288 17.55024669 226.16875173 C17.58332762 243.13836081 17.60132974 260.10793311 17.60452431 277.07757461 C17.60668836 286.60346014 17.61542177 296.12924007 17.64098549 305.65509415 C17.66270653 313.76769433 17.67073596 321.88016326 17.66101871 329.99278922 C17.65647818 334.12988372 17.65834571 338.26670747 17.67778015 342.40376472 C17.69544244 346.19642835 17.69438965 349.98862433 17.67888286 353.78129314 C17.67539411 355.79206252 17.69151009 357.80283698 17.70848733 359.81353772 C17.61530538 372.99255548 13.57363277 383.77245869 4.19140625 393.19140625 C-5.0993987 401.08432862 -15.89439554 404.24210411 -27.9453125 403.6015625 C-40.87648702 402.2170125 -50.11258388 396.16659444 -58.3125 386.27734375 C-65.93104143 375.66296962 -66.11098635 362.85791959 -66.07319641 350.26551819 C-66.07622287 348.88689148 -66.08011482 347.50826644 -66.08478898 346.12964433 C-66.09501382 342.36950952 -66.09290135 338.60947064 -66.08860838 334.84932816 C-66.08613111 330.78312234 -66.09516764 326.71693903 -66.10264587 322.65074158 C-66.11536664 314.69590632 -66.11718989 306.74110486 -66.11484561 298.78626115 C-66.11305955 292.31827772 -66.11481826 285.85030452 -66.11907005 279.38232231 C-66.11966524 278.46030672 -66.12026043 277.53829113 -66.12087366 276.58833567 C-66.12208546 274.71502332 -66.12329959 272.84171097 -66.12451603 270.96839862 C-66.13538122 253.41831781 -66.13323377 235.86825624 -66.12713119 218.31817435 C-66.12196152 202.27703756 -66.1332206 186.23596147 -66.15222941 170.19483668 C-66.17161914 153.7052838 -66.1798619 137.21575963 -66.17610615 120.72619528 C-66.17419602 111.47593686 -66.17666351 102.22573013 -66.19082069 92.97548103 C-66.20274985 85.10168027 -66.20412209 77.22796303 -66.19203053 69.35416109 C-66.18615295 65.34049059 -66.18501127 61.32697275 -66.19703293 57.31331253 C-66.20792907 53.63253488 -66.2047445 49.95203666 -66.19077124 46.27127188 C-66.18689437 44.32317989 -66.19764075 42.37507531 -66.20906812 40.42701298 C-66.12423388 26.52961974 -63.1265205 14.73858588 -53.5 4.375 C-49.68805857 0.81439537 -45.52544379 -1.62061984 -40.8125 -3.8125 C-39.81669922 -4.29396484 -39.81669922 -4.29396484 -38.80078125 -4.78515625 C-25.8822415 -10.07560586 -11.47734568 -7.11137864 0 0 Z " fill="#000000" transform="translate(443.8125,57.8125)"/>
</svg>
