<svg xmlns="http://www.w3.org/2000/svg" viewBox="0 0 511.99 512" id="vlc-media-player"><g data-name="Layer 2"><g data-name="vlc media player"><path fill="#ff9800" d="M500.24,478.25l-65.6-131.2A16.43,16.43,0,0,0,420,338H92a16.41,16.41,0,0,0-14.65,9.05L11.71,478.25A16.43,16.43,0,0,0,26.37,502H485.58a16.38,16.38,0,0,0,14.66-23.75Z"></path><path d="M485.58,512H26.37a26.43,26.43,0,0,1-23.6-38.24l65.6-131.18A26.3,26.3,0,0,1,92,328H420a26.27,26.27,0,0,1,23.59,14.56l65.61,131.22,0,0A26.37,26.37,0,0,1,485.58,512ZM92,348a6.39,6.39,0,0,0-5.72,3.54L20.65,482.72a6.39,6.39,0,0,0,.29,6.21A6.46,6.46,0,0,0,26.37,492H485.58a6.55,6.55,0,0,0,5.5-3.09,6.44,6.44,0,0,0,.19-6.22L425.69,351.53A6.37,6.37,0,0,0,420,348Z"></path><path fill="#fcfcfc" d="M387.17,354.4c0,47.88-117.75,49.2-131.19,49.2s-131.21-1.32-131.21-49.2a19.05,19.05,0,0,1,.66-4.26l22.64-83C164.13,279.62,206.45,288.8,256,288.8s91.84-9.18,107.91-21.65l22.63,83a19,19,0,0,1,.65,4.26Z"></path><path d="M256,413.6c-6.5,0-40.54-.33-72.64-6.84-18.93-3.84-34.12-9.2-45.16-15.93-19.35-11.79-23.41-26.32-23.41-36.43a28.13,28.13,0,0,1,1-6.7l.06-.19,22.63-83a10,10,0,0,1,15.78-5.27c12.13,9.42,49.15,19.55,101.78,19.55s89.64-10.13,101.78-19.55a10,10,0,0,1,15.77,5.27l22.63,83a1.21,1.21,0,0,1,0,.18,27.8,27.8,0,0,1,1,6.71c0,10.11-4.06,24.64-23.4,36.43-11,6.73-26.23,12.09-45.16,15.93C296.51,413.27,262.47,413.6,256,413.6ZM135.11,352.66a11,11,0,0,0-.34,1.8c0,28.7,72.49,39.14,121.21,39.14s121.14-10.43,121.19-39.17a10.83,10.83,0,0,0-.33-1.76l-19.19-70.39c-22.42,10.23-60,16.52-101.67,16.52s-79.25-6.29-101.67-16.52Z"></path><path fill="#fcfcfc" d="M339.94,179.91c-20.66,6.55-50.84,10.49-84,10.49s-63.31-3.94-84-10.49L197.26,87.4A352.93,352.93,0,0,0,256,92a351.74,351.74,0,0,0,58.71-4.6Z"></path><path d="M256,200.4c-33.32,0-65-4-87-11a10,10,0,0,1-6.63-12.17l25.26-92.5A10,10,0,0,1,199,77.55,341.85,341.85,0,0,0,256,82a341.64,341.64,0,0,0,57-4.45,10,10,0,0,1,11.35,7.22l25.26,92.5A10,10,0,0,1,343,189.44C321,196.4,289.3,200.4,256,200.4ZM184.27,173c19.38,4.77,44.87,7.45,71.71,7.45s52.32-2.68,71.7-7.45L307.39,98.66A378.71,378.71,0,0,1,256,102a378.76,378.76,0,0,1-51.42-3.34Z"></path><path fill="#ff9800" d="M256,92a351.87,351.87,0,0,1-58.72-4.6l11.48-41.65C215,23.78,233.67,10,256,10s41,13.78,47.23,35.42l11.49,42A351.74,351.74,0,0,1,256,92Z"></path><path d="M256,102a362.14,362.14,0,0,1-60.42-4.74,10,10,0,0,1-7.94-12.51L199.1,43.09C206.54,16.89,228.85,0,256,0s49.37,16.74,56.83,42.66a.56.56,0,0,1,0,.12l11.48,42a10,10,0,0,1-7.94,12.5A362.1,362.1,0,0,1,256,102ZM209.9,79.2A362.52,362.52,0,0,0,256,82a360.78,360.78,0,0,0,46.09-2.81l-8.49-31.06C288.63,31,273.88,20,256,20s-32.71,11.18-37.62,28.47Z"></path><path fill="#ff9800" d="M363.89,267.15C347.82,279.62,305.51,288.8,256,288.8s-91.85-9.18-107.92-21.65L172,179.91c20.66,6.55,50.84,10.49,84,10.49s63.3-3.94,84-10.49Z"></path><path d="M256,298.8c-50.69,0-95.46-9.32-114-23.75a10,10,0,0,1-3.51-10.55l23.94-87.24A10,10,0,0,1,175,170.37c20.09,6.37,49.59,10,80.95,10s60.85-3.66,80.94-10a10,10,0,0,1,12.67,6.89l23.94,87.24A10,10,0,0,1,370,275.05C351.43,289.48,306.66,298.8,256,298.8Zm-96.32-36.13C175.5,271,209.71,278.8,256,278.8s80.47-7.84,96.31-16.13L333,192.24c-21.07,5.22-48.43,8.16-77,8.16s-55.92-2.94-77-8.16Z"></path></g></g></svg>